<?xml version="1.0" encoding="UTF-8" standalone="no"?>
<svg
   viewBox="6.0351599 6.961802 20 20.000001"
   version="1.1"
   id="svg7"
   sodipodi:docname="final_ink.svg"
   inkscape:version="1.4 (86a8ad7, 2024-10-11)"
   width="20"
   height="20"
   inkscape:export-filename="final_ink.png"
   inkscape:export-xdpi="96"
   inkscape:export-ydpi="96"
   xmlns:inkscape="http://www.inkscape.org/namespaces/inkscape"
   xmlns:sodipodi="http://sodipodi.sourceforge.net/DTD/sodipodi-0.dtd"
   xmlns:xlink="http://www.w3.org/1999/xlink"
   xmlns="http://www.w3.org/2000/svg"
   xmlns:svg="http://www.w3.org/2000/svg">
  <sodipodi:namedview
     id="namedview7"
     pagecolor="#ffffff"
     bordercolor="#000000"
     borderopacity="0.25"
     inkscape:showpageshadow="2"
     inkscape:pageopacity="0.0"
     inkscape:pagecheckerboard="0"
     inkscape:deskcolor="#d1d1d1"
     inkscape:zoom="32"
     inkscape:cx="5.96875"
     inkscape:cy="10.890625"
     inkscape:window-width="1920"
     inkscape:window-height="991"
     inkscape:window-x="-9"
     inkscape:window-y="-9"
     inkscape:window-maximized="1"
     inkscape:current-layer="layer1"
     inkscape:export-bgcolor="#ffffff00" />
  <defs
     id="defs5">
    <defs
       id="defs4">
      <g
         id="g4">
        <symbol
           overflow="visible"
           id="glyph0-0">
          <path
             fill="#2c3e50"
             style="stroke:none"
             d=""
             id="path1" />
        </symbol>
        <symbol
           overflow="visible"
           id="glyph0-1">
          <path
             fill="#2c3e50"
             style="stroke:none"
             d="m 2.84375,-6.296875 h 1.125 v -0.46875 c -0.40625,0.03125 -1.359375,0.03125 -1.8125,0.03125 -0.453125,0 -1.421875,0 -1.828125,-0.03125 v 0.46875 h 1.125 v 5.828125 h -1.125 V 0 c 0.40625,-0.03125 1.375,-0.03125 1.828125,-0.03125 0.453125,0 1.40625,0 1.8125,0.03125 v -0.46875 h -1.125 z m 0,0"
             id="path2" />
        </symbol>
        <symbol
           overflow="visible"
           id="glyph0-2">
          <path
             fill="#2c3e50"
             style="stroke:none"
             d="m 2.84375,-2.984375 h 1.75 c 1.375,0 2.515625,-0.703125 2.515625,-1.859375 C 7.109375,-5.921875 6.125,-6.765625 4.5,-6.765625 H 0.390625 v 0.46875 h 1.0625 v 5.828125 h -1.0625 V 0 c 0.375,-0.03125 1.328125,-0.03125 1.765625,-0.03125 0.421875,0 1.390625,0 1.765625,0.03125 V -0.46875 H 2.84375 Z M 4.109375,-3.375 h -1.3125 V -6.296875 H 4.125 c 1.46875,0 1.46875,0.75 1.46875,1.453125 0,0.703125 0,1.46875 -1.484375,1.46875 z m 0,0"
             id="path3" />
        </symbol>
        <symbol
           overflow="visible"
           id="glyph0-3">
          <path
             fill="#2c3e50"
             style="stroke:none"
             d="M 4.671875,-6.625 C 4.5625,-6.875 4.453125,-6.875 4.28125,-6.875 4,-6.875 3.96875,-6.796875 3.890625,-6.625 l -2.4375,5.9375 c -0.0625,0.140625 -0.09375,0.21875 -0.84375,0.21875 H 0.40625 V 0 c 0.375,-0.015625 0.84375,-0.03125 1.15625,-0.03125 0.375,0 0.9375,0 1.296875,0.03125 v -0.46875 c -0.015625,0 -0.875,0 -0.875,-0.125 0,0 0.03125,-0.109375 0.03125,-0.109375 l 0.5,-1.203125 H 5.15625 L 5.75,-0.46875 H 4.8125 V 0 c 0.375,-0.03125 1.3125,-0.03125 1.734375,-0.03125 0.390625,0 1.265625,0 1.609375,0.03125 V -0.46875 H 7.203125 Z m -0.84375,1.515625 1.125,2.75 H 2.71875 Z m 0,0"
             id="path4" />
        </symbol>
      </g>
    </defs>
  </defs>
  <rect
     x="6.0351601"
     y="6.961802"
     width="20"
     height="20"
     rx="3"
     fill="#f7f2e7"
     id="rect5-2"
     style="display:inline;fill:#faf5f0;fill-opacity:1;stroke-width:1.58036" />
  <rect
     x="6.0351601"
     y="8.9618015"
     width="20"
     height="15"
     rx="3"
     fill="#f7f2e7"
     id="rect5-0"
     style="display:inline;fill:#4e2d3c;fill-opacity:1;stroke-width:1.36863" />
  <rect
     x="6.0351601"
     y="6.961802"
     width="20"
     height="16"
     rx="3"
     fill="#f7f2e7"
     id="rect5"
     style="display:inline;fill:#e9ded3;fill-opacity:1;stroke-width:1.41352" />
  <g
     inkscape:groupmode="layer"
     id="layer1"
     inkscape:label="Layer 1"
     transform="matrix(0.86078891,0,0,0.87272727,-2.6161092,6.6899205)">
    <use
       xlink:href="#glyph0-1"
       x="7.9796829"
       y="14.661802"
       id="use5"
       transform="matrix(1,0,0,0.90069182,2.9043121,8.303674)"
       style="display:inline;fill:#3e3d38;fill-opacity:1" />
    <use
       xlink:href="#glyph0-2"
       x="12.28206"
       y="14.661802"
       id="use6"
       transform="matrix(1,0,0,0.90069182,2.9043121,8.303674)"
       style="display:inline;fill:#3e3d38;fill-opacity:1" />
    <use
       xlink:href="#glyph0-3"
       x="19.090292"
       y="14.661802"
       id="use7"
       transform="matrix(1,0,0,0.90069182,1.3914532,8.303674)"
       style="display:inline;fill:#3e3d38;fill-opacity:1" />
    <text
       style="font-weight:bold;font-size:11.0557px;font-family:NewComputerModern10;-inkscape-font-specification:'NewComputerModern10 Bold';text-align:center;fill:#3e3d38;fill-opacity:1;stroke-width:1.4201"
       transform="scale(1.2864776,0.7773163)"
       x="8.9108295"
       y="19.932472"
       id="text11">→</text>
  </g>
</svg>
